<?xml version="1.0" standalone="no"?>
<!DOCTYPE svg PUBLIC "-//W3C//DTD SVG 20010904//EN"
 "http://www.w3.org/TR/2001/REC-SVG-20010904/DTD/svg10.dtd">
<svg version="1.0" xmlns="http://www.w3.org/2000/svg"
 width="252.000000pt" height="252.000000pt" viewBox="0 0 252.000000 252.000000"
 preserveAspectRatio="xMidYMid meet">
<metadata>
Created by potrace 1.14, written by Peter Selinger 2001-2017
</metadata>
<g transform="translate(0.000000,252.000000) scale(0.100000,-0.100000)"
fill="#000000" stroke="none">
<path d="M1205 2498 c-3 -7 -23 -69 -46 -138 -92 -278 -162 -438 -351 -800
-51 -98 -148 -322 -148 -342 0 -2 32 -30 71 -62 l71 -59 36 21 c42 24 44 35
24 135 -8 38 -12 70 -10 72 1 1 32 6 68 9 36 4 79 9 95 11 17 3 53 7 80 10 28
3 69 8 93 11 36 5 42 3 42 -13 1 -49 13 -139 19 -146 4 -4 21 -10 37 -13 16
-3 36 -7 45 -10 11 -3 30 16 60 61 24 35 47 65 52 65 4 0 73 -52 152 -116
l145 -116 -45 -53 c-25 -29 -45 -58 -45 -64 0 -6 12 -30 26 -52 l26 -41 51 6
c29 4 62 9 74 12 25 7 29 -4 38 -98 3 -37 8 -77 10 -89 2 -12 7 -54 11 -93 3
-39 8 -74 10 -78 7 -12 -13 -18 -76 -22 -34 -3 -64 -7 -67 -9 -10 -10 -30
-105 -24 -113 15 -21 103 -75 115 -71 19 8 84 144 102 215 8 35 16 100 17 145
4 217 -42 356 -238 717 -269 496 -499 992 -507 1096 -3 27 -6 30 -13 12z m55
-807 c32 -83 36 -150 12 -202 -20 -45 -60 -94 -69 -86 -2 3 3 17 12 31 24 37
44 120 38 163 -6 43 -11 52 -17 32 -2 -8 -9 -34 -16 -59 -25 -88 -81 -163
-109 -145 -17 10 -22 62 -10 110 8 31 29 68 61 107 31 36 52 72 55 94 7 41 13
35 43 -45z m158 -111 c-5 -48 -29 -90 -51 -90 -6 0 -1 10 10 23 40 44 35 61
-7 23 -22 -20 -45 -36 -51 -36 -19 0 2 44 34 72 18 15 39 34 47 42 22 21 23
20 18 -34z m28 -175 c51 -30 63 -45 36 -45 -11 0 -44 -10 -73 -23 -60 -26
-106 -27 -139 -4 l-22 15 30 16 c35 18 62 24 110 25 18 1 31 5 28 10 -8 13
-81 20 -121 11 -42 -10 -44 -6 -7 15 36 21 103 12 158 -20z"/>
<path d="M1108 1294 c-2 -1 -34 -5 -73 -9 -38 -4 -77 -9 -85 -10 -8 -2 -19 -4
-23 -4 -5 -1 -6 -4 -4 -8 3 -5 8 -26 11 -48 4 -22 9 -54 12 -71 6 -30 3 -33
-70 -79 l-76 -47 -67 57 -68 56 -27 -32 c-23 -27 -40 -72 -54 -144 -2 -11 -6
-31 -9 -45 -15 -69 -19 -117 -19 -245 -1 -146 3 -188 27 -267 35 -112 129
-236 227 -295 107 -65 267 -102 430 -98 137 3 224 23 333 78 70 35 82 45 123
108 24 38 47 75 50 83 4 10 -13 27 -50 52 l-55 36 16 37 c8 20 20 61 25 91 6
30 13 58 17 61 3 4 33 10 65 13 33 3 60 7 61 9 5 5 -27 233 -34 239 -4 4 -22
3 -41 -2 -67 -19 -83 -14 -112 38 -15 26 -38 63 -50 83 l-22 36 43 52 c24 29
42 53 40 55 -2 1 -46 35 -97 75 -51 39 -96 70 -100 67 -5 -3 -24 -28 -42 -56
-30 -44 -39 -50 -60 -46 -14 3 -55 11 -92 18 -64 11 -68 14 -73 43 -4 30 -14
104 -15 117 0 6 -56 8 -62 2z m-466 -942 c54 -113 162 -211 288 -260 70 -28
181 -52 244 -52 27 0 47 -3 43 -6 -6 -7 -86 -7 -132 0 -159 23 -269 77 -367
180 -48 50 -111 164 -122 221 -5 29 -5 29 5 5 6 -14 25 -53 41 -88z m613 -322
c3 -6 -1 -7 -9 -4 -18 7 -21 14 -7 14 6 0 13 -4 16 -10z"/>
</g>
</svg>
